<svg width="30" height="45" viewBox="0 0 30 45" fill="none" xmlns="http://www.w3.org/2000/svg">
<path d="M29 14.7C29 16.5575 28.4452 18.9062 27.4769 21.5445C26.514 24.1679 25.1682 27.0097 23.645 29.832C20.8889 34.9389 17.5837 39.9242 15.0047 43.3508C12.1819 39.5736 8.84419 34.5476 6.13096 29.4963C4.64598 26.7317 3.35693 23.9758 2.4412 21.4247C1.52119 18.8616 1 16.5647 1 14.7C1 7.15265 7.24887 1 15 1C22.7511 1 29 7.15265 29 14.7Z" fill="#FF8000" stroke="white" stroke-width="2"/>
<path d="M21.7805 22.9998H8.21948C7.54784 22.9942 7.0046 22.3304 7 21.5104V12.2117C7.0046 11.3911 7.54784 10.7273 8.21896 10.7217H21.7805C22.4522 10.7273 22.9954 11.3911 23 12.2111V21.5117C23 22.3336 22.4547 22.9998 21.7821 22.9998H21.7805ZM8.21948 11.7154C8.21845 11.7154 8.21692 11.7154 8.2159 11.7154C7.99338 11.7154 7.81333 11.9354 7.81333 12.2073V12.2123V21.5123V21.5167C7.81333 21.7886 7.99338 22.0086 8.2159 22.0086H8.21999H21.781H21.7846C22.0071 22.0086 22.1872 21.7886 22.1872 21.5167C22.1872 21.5148 22.1872 21.5136 22.1872 21.5117V12.2117C22.1872 12.2104 22.1872 12.2086 22.1872 12.2073C22.1872 11.9354 22.0071 11.7154 21.7846 11.7154C21.7831 11.7154 21.7821 11.7154 21.7805 11.7154H8.21948Z" fill="white"/>
<path d="M18.5936 9.19201V9.19451C18.5936 9.48951 18.3977 9.72826 18.1568 9.72826C18.1563 9.72826 18.1553 9.72826 18.1548 9.72826H11.8461C11.8456 9.72826 11.8446 9.72826 11.8441 9.72826C11.6026 9.72826 11.4072 9.48889 11.4072 9.19451C11.4072 9.19389 11.4072 9.19264 11.4072 9.19201C11.4072 9.19139 11.4072 9.19014 11.4072 9.18951C11.4072 8.89451 11.6031 8.65576 11.8441 8.65576H11.8461H18.1548C18.3931 8.66889 18.5834 8.90201 18.5936 9.19201Z" fill="white"/>
<path d="M20.1221 9.58938V9.59813C20.1221 10.0431 19.8269 10.4038 19.4627 10.4038C19.4602 10.4038 19.4576 10.4038 19.4551 10.4038C19.453 10.4038 19.451 10.4038 19.4484 10.4038C19.0842 10.4038 18.7891 10.0431 18.7891 9.59813C18.7891 9.595 18.7891 9.59188 18.7891 9.58875V8.81438C18.7891 8.81188 18.7891 8.80875 18.7891 8.80563C18.7891 8.36063 19.0842 8 19.4484 8H19.4561H19.4627C19.8269 8 20.1221 8.36063 20.1221 8.80563V8.815V8.81438V9.58938Z" fill="white"/>
<path d="M11.211 9.58938V9.59813C11.211 10.0431 10.9158 10.4038 10.5516 10.4038C10.5491 10.4038 10.5465 10.4038 10.5439 10.4038C10.5419 10.4038 10.5398 10.4038 10.5373 10.4038C10.1731 10.4038 9.87793 10.0431 9.87793 9.59813C9.87793 9.595 9.87793 9.59188 9.87793 9.58875V8.81438C9.87793 8.81188 9.87793 8.80875 9.87793 8.80563C9.87793 8.36063 10.1731 8 10.5373 8H10.545H10.5444H10.5516C10.9158 8 11.211 8.36063 11.211 8.80563V8.815V8.81438V9.58938Z" fill="white"/>
<path d="M22.2529 9.19201V9.19451C22.2529 9.48951 22.057 9.72826 21.8161 9.72826C21.8156 9.72826 21.8146 9.72826 21.8141 9.72826H20.725C20.7245 9.72826 20.7235 9.72826 20.723 9.72826C20.4815 9.72826 20.2861 9.48889 20.2861 9.19451C20.2861 9.19389 20.2861 9.19264 20.2861 9.19201C20.2861 9.19139 20.2861 9.19014 20.2861 9.18951C20.2861 8.89451 20.482 8.65576 20.723 8.65576H20.725H21.8141C22.0524 8.66889 22.2427 8.90201 22.2529 9.19201Z" fill="white"/>
<path d="M9.69949 9.19201V9.19451C9.69949 9.48951 9.50358 9.72826 9.26265 9.72826H8.18742C8.18691 9.72826 8.18589 9.72826 8.18538 9.72826C7.94394 9.72826 7.74854 9.48889 7.74854 9.19451C7.74854 9.19389 7.74854 9.19264 7.74854 9.19201C7.74854 9.19139 7.74854 9.19014 7.74854 9.18951C7.74854 8.89451 7.94445 8.65576 8.18538 8.65576H8.18742H9.27646C9.51074 8.67014 9.69693 8.90389 9.69949 9.19201Z" fill="white"/>
<path d="M9.89403 17.0986V18.3486H10.8859V17.0986H11.4874V20.3574H10.8859V18.9861H9.89403V20.3574H9.29248V17.0986H9.89403Z" fill="white"/>
<path d="M14.4637 18.6892C14.4683 18.738 14.4704 18.7942 14.4704 18.8511C14.4704 19.7167 13.8959 20.4186 13.1875 20.4186C13.1732 20.4186 13.1583 20.4186 13.144 20.418H13.146C13.1414 20.418 13.1363 20.418 13.1312 20.418C12.4442 20.418 11.8877 19.738 11.8877 18.8986C11.8877 18.8461 11.8897 18.7936 11.8943 18.7423L11.8938 18.7486C11.8908 18.7086 11.8892 18.663 11.8892 18.6161C11.8892 17.7448 12.4673 17.0392 13.1798 17.0392H13.1957H13.1946C13.2038 17.0392 13.2151 17.0386 13.2258 17.0386C13.9118 17.0386 14.4673 17.7179 14.4673 18.5555C14.4673 18.6023 14.4658 18.6492 14.4622 18.6948L14.4627 18.6892H14.4637ZM12.545 18.7286C12.545 19.3648 12.7905 19.8211 13.1952 19.8211C13.5998 19.8211 13.8294 19.3442 13.8294 18.7086C13.8294 18.1123 13.6018 17.6161 13.1793 17.6161C12.7731 17.6148 12.545 18.0923 12.545 18.7273V18.7286Z" fill="white"/>
<path d="M15.2766 17.7149H14.5615V17.0986H16.6107V17.7149H15.8792V20.3574H15.2777L15.2766 17.7149Z" fill="white"/>
<path d="M18.5123 18.9661H17.5369V19.7411H18.6418V20.3374H16.9189V17.0986H18.5609V17.6949H17.5205V18.3705H18.496V18.9668L18.5123 18.9661Z" fill="white"/>
<path d="M19.0488 17.0986H19.6504V19.7411H20.7072V20.3574H19.0488V17.0986Z" fill="white"/>
<path d="M15.0003 15.0139L14.122 15.592L14.2857 14.4001L13.5854 13.542L14.5609 13.3632L14.9998 12.292L15.4387 13.3651L16.4142 13.5439L15.7149 14.3982L15.8786 15.5901L15.0003 15.0139Z" fill="white"/>
<path d="M18.041 15.1521L17.3745 15.5889L17.5044 14.6752L16.9673 14.0396L17.6988 13.9208L18.04 13.0864L18.3653 13.9208L19.1131 14.0396L18.5765 14.6758L18.6901 15.5896L18.041 15.1521Z" fill="white"/>
<path d="M19.9753 15.3112L19.5365 15.5893L19.6183 14.9931L19.2607 14.5762L19.7487 14.4762L19.9764 13.9399L20.1881 14.4762L20.6761 14.5762L20.3349 14.9931L20.4168 15.5893L19.9753 15.3112Z" fill="white"/>
<path d="M11.976 15.1521L12.6261 15.5889L12.4962 14.6752L13.0328 14.0389L12.3013 13.9202L11.9765 13.0864L11.6353 13.9208L10.9033 14.0396L11.4399 14.6758L11.31 15.5896L11.976 15.1521Z" fill="white"/>
<path d="M10.025 15.3112L10.4639 15.5893L10.382 14.9931L10.7396 14.5762L10.2516 14.4762L10.0245 13.9399L9.8127 14.4762L9.32471 14.5762L9.68226 14.9931L9.60042 15.5893L10.025 15.3112Z" fill="white"/>
</svg>
