<svg width="30" height="45" viewBox="0 0 30 45" fill="none" xmlns="http://www.w3.org/2000/svg">
<path d="M29 14.7C29 16.5575 28.4452 18.9062 27.4769 21.5445C26.514 24.1679 25.1682 27.0097 23.645 29.832C20.8889 34.9389 17.5837 39.9242 15.0047 43.3508C12.1819 39.5736 8.84419 34.5476 6.13096 29.4963C4.64598 26.7317 3.35693 23.9758 2.4412 21.4247C1.52119 18.8616 1 16.5647 1 14.7C1 7.15265 7.24887 1 15 1C22.7511 1 29 7.15265 29 14.7Z" fill="#00FF29" stroke="white" stroke-width="2"/>
<path d="M21.8679 17.9419L19.8385 15.298H21.3345C21.9139 15.3011 22.1224 14.6952 21.8434 14.2791L17.2267 8.23868C17.0029 7.92044 16.4634 7.92044 16.2396 8.23868L13.3672 11.9933C12.8246 11.7913 12.2452 11.675 11.6504 11.675C9.06925 11.675 7 13.7436 7 16.2558C7 18.5569 8.76269 20.4541 11.0159 20.7601V21.727H9.16428C8.81481 21.727 8.52665 22.0147 8.52665 22.3635C8.52665 22.7124 8.81481 23 9.16428 23H20.6969C21.0464 23 21.3345 22.7124 21.3345 22.3635C21.3345 22.0147 21.0464 21.727 20.6969 21.727H17.3861V18.9547H21.3683C21.8925 18.9547 22.1868 18.355 21.8679 17.9419ZM8.27221 16.1885C8.27221 14.377 9.7682 12.8807 11.6504 12.8807C11.9785 12.8807 12.2942 12.9235 12.5946 13.0061L11.6198 14.2821C11.3102 14.6799 11.5922 15.3103 12.1287 15.3011H13.6247L11.6167 17.9419C11.3316 18.355 11.5217 18.9119 12.1256 18.9608H13.5082C12.9625 19.3097 12.3095 19.5024 11.6474 19.5024C9.80192 19.4963 8.27221 18 8.27221 16.1885ZM16.1108 21.724H12.2881V20.757C13.4836 20.5887 14.575 19.9523 15.3168 18.9578H16.1108V21.724ZM13.3702 17.7154L15.3782 15.1083C15.7123 14.7748 15.4241 14.0894 14.8693 14.0894H13.3733L16.7485 9.70135L20.0623 14.0588H18.5663C18.0053 14.0588 17.7632 14.6799 18.0575 15.0777L20.0654 17.7185H13.3702V17.7154Z" fill="#FFFEFE"/>
</svg>
