<svg width="30" height="45" viewBox="0 0 30 45" fill="none" xmlns="http://www.w3.org/2000/svg">
<path d="M29 14.7C29 16.5575 28.4452 18.9062 27.4769 21.5445C26.514 24.1679 25.1682 27.0097 23.645 29.832C20.8889 34.9389 17.5837 39.9242 15.0047 43.3508C12.1819 39.5736 8.84419 34.5476 6.13096 29.4963C4.64598 26.7317 3.35693 23.9758 2.4412 21.4247C1.52119 18.8616 1 16.5647 1 14.7C1 7.15265 7.24887 1 15 1C22.7511 1 29 7.15265 29 14.7Z" fill="#FF0000" stroke="white" stroke-width="2"/>
<path d="M21.7461 9.39737L21.1163 8.68698C21.2639 8.62068 21.3624 8.50493 21.3624 8.37274C21.3624 8.16688 21.1256 8 20.8329 8H9.01075C8.45908 8 7.95639 8.15826 7.59542 8.41276C7.23382 8.66624 7 9.02094 7 9.40865V21.7726C7 22.4504 7.78088 23 8.74372 23H21.531C22.3422 23 23 22.5373 23 21.9666V10.416C23 9.89674 22.4541 9.47187 21.7461 9.39737ZM10.6606 13.2834L11.8258 14.2544C11.9173 14.331 12.0708 14.3458 12.1681 14.2877L12.2159 14.2596C12.3133 14.2015 12.3191 14.0925 12.227 14.016L11.0554 13.0394C10.8192 12.8426 10.9183 12.6829 11.081 12.5862C11.2437 12.4895 11.484 12.4474 11.7202 12.6443L12.8918 13.6209C12.9834 13.6974 13.1373 13.712 13.2347 13.6539L13.2819 13.6258C13.3793 13.5679 13.3852 13.4589 13.293 13.3824L12.1278 12.4111C11.705 12.0587 12.3634 11.688 12.7763 12.0324C13.2714 12.445 13.8768 12.9497 13.8768 12.9497C14.6401 13.5815 14.6431 13.8614 14.5597 14.2491C14.4926 14.5615 14.3812 14.7836 14.8548 15.1785L15.0052 15.3037L14.341 15.8573L14.0791 15.6395C13.6056 15.2446 13.2761 15.2846 12.8271 15.2791C12.2701 15.2721 11.8788 15.2224 11.1219 14.5872C11.1219 14.5872 10.5165 14.0825 10.0214 13.6699C9.60854 13.3257 10.2378 12.9308 10.6606 13.2834ZM12.8702 21.1316H12.4941V20.3309L12.1208 20.8868H11.852L11.4676 20.3279V21.1316H11.0921V19.7205H11.4524L11.9861 20.5206L12.5091 19.7205H12.8702V21.1316H12.8702ZM14.755 19.9641H13.819V20.2995H14.6174V20.5413H13.819V20.888H14.755V21.1316H13.4435V19.7205H14.755V19.9641ZM16.7611 21.1316H16.4293L15.6071 20.2503V21.1316H15.2315V19.7205H15.5633L16.3856 20.6V19.7205H16.7611V21.1316ZM15.5493 16.8648L16.2136 16.3111L18.1701 17.9422L17.3951 18.4034L15.5493 16.8648ZM18.7708 20.6462C18.7708 20.7196 18.7516 20.7878 18.7148 20.8487C18.6775 20.9099 18.625 20.9629 18.5591 21.006C18.4932 21.0489 18.4145 21.0827 18.3253 21.107C18.2366 21.1307 18.1398 21.1429 18.0378 21.1429C17.9363 21.1429 17.8395 21.1307 17.7502 21.107C17.661 21.0827 17.5829 21.0487 17.5182 21.0058C17.4528 20.9626 17.401 20.9099 17.3642 20.8487C17.3269 20.7878 17.3082 20.7196 17.3082 20.6462V19.7205H17.6838V20.6367C17.6838 20.7194 17.7159 20.7847 17.7795 20.8305C17.8436 20.8769 17.9281 20.8992 18.0378 20.8992C18.1475 20.8992 18.2326 20.8767 18.2979 20.8303C18.3632 20.7839 18.3947 20.7205 18.3947 20.6367V19.7205H18.7708L18.7708 20.6462ZM19.6234 13.3146C19.3563 13.7729 18.8763 14.6138 18.3398 15.0615C17.0918 16.1633 17.0749 15.1651 16.0462 15.9972L13.1595 18.4034L12.3879 17.9445L12.3751 17.9498C12.3751 17.9498 12.3786 17.9467 12.3838 17.9424C12.5057 17.841 14.2226 16.41 15.6998 15.1783C17.1612 13.9601 18.3812 12.9429 18.6384 12.7288C19.1656 12.2889 20.0404 12.6011 19.6234 13.3146ZM8.09927 9.42529V9.40865C8.09927 9.24547 8.19841 9.08229 8.37101 8.961C8.54307 8.8395 8.76932 8.77361 9.01075 8.77361H19.8975L20.4754 9.42529H8.09927Z" fill="white"/>
</svg>
